<svg data-v-423bf9ae="" xmlns="http://www.w3.org/2000/svg" viewBox="0 0 471 90" class="iconLeftSlogan"><!----><!----><!----><g data-v-423bf9ae="" id="b3ef4c48-efc2-47ea-a38c-c086084ad1a2" fill="#FFFFFF" transform="matrix(4.166666777045641,0,0,4.166666777045641,120.33333246202909,-10.333334163383213)"><path d="M6.26 4.20L8.57 4.20L7.77 14L5.29 14L4.38 10.74L4.24 9.18L4.10 10.74L3.19 14L0.71 14L-0.08 4.20L2.23 4.20L2.37 8.22L2.49 10.01L2.59 8.62L3.29 5.61L5.19 5.61L5.89 8.62L5.99 10.01L6.12 8.22L6.26 4.20ZM13.36 6.85L13.36 6.85Q14.22 6.85 14.79 7.08L14.79 7.08L14.79 7.08Q15.36 7.32 15.67 7.93L15.67 7.93L15.67 7.93Q15.97 8.54 15.97 9.65L15.97 9.65L15.97 14L13.47 14L13.47 10.88L13.47 10.88Q13.47 9.87 13.26 9.34L13.26 9.34L13.26 9.34Q13.05 8.81 12.56 8.81L12.56 8.81L12.56 8.81Q12.26 8.81 12.01 9.03L12.01 9.03L12.01 9.03Q11.75 9.25 11.55 9.56L11.55 9.56L11.55 14L9.04 14L9.04 2.80L11.55 2.80L11.55 7.35L11.55 7.35Q12.38 6.85 13.36 6.85L13.36 6.85ZM21.04 14.15L21.04 14.15Q20.06 14.15 19.21 13.78L19.21 13.78L19.21 13.78Q18.35 13.41 17.82 12.59L17.82 12.59L17.82 12.59Q17.29 11.76 17.29 10.49L17.29 10.49L17.29 10.49Q17.29 9.21 17.82 8.39L17.82 8.39L17.82 8.39Q18.35 7.57 19.21 7.20L19.21 7.20L19.21 7.20Q20.06 6.83 21.04 6.83L21.04 6.83L21.04 6.83Q22.02 6.83 22.87 7.20L22.87 7.20L22.87 7.20Q23.72 7.57 24.25 8.39L24.25 8.39L24.25 8.39Q24.78 9.21 24.78 10.49L24.78 10.49L24.78 10.49Q24.78 11.76 24.25 12.59L24.25 12.59L24.25 12.59Q23.72 13.41 22.87 13.78L22.87 13.78L22.87 13.78Q22.02 14.15 21.04 14.15L21.04 14.15ZM21.04 12.19L21.04 12.19Q21.46 12.19 21.83 11.88L21.83 11.88L21.83 11.88Q22.20 11.56 22.20 10.49L22.20 10.49L22.20 10.49Q22.20 9.42 21.83 9.11L21.83 9.11L21.83 9.11Q21.46 8.79 21.04 8.79L21.04 8.79L21.04 8.79Q19.87 8.79 19.87 10.49L19.87 10.49L19.87 10.49Q19.87 12.19 21.04 12.19L21.04 12.19ZM29.43 14.15L29.43 14.15Q28.08 14.15 27.15 13.76L27.15 13.76L27.15 13.76Q26.21 13.36 25.73 12.66L25.73 12.66L27.66 11.44L27.66 11.44Q27.89 11.83 28.39 12.05L28.39 12.05L28.39 12.05Q28.88 12.28 29.55 12.28L29.55 12.28L29.55 12.28Q30.02 12.28 30.25 12.16L30.25 12.16L30.25 12.16Q30.48 12.04 30.48 11.86L30.48 11.86L30.48 11.86Q30.48 11.68 30.18 11.54L30.18 11.54L30.18 11.54Q29.89 11.40 29.22 11.26L29.22 11.26L29.22 11.26Q27.94 10.98 27.10 10.43L27.10 10.43L27.10 10.43Q26.25 9.88 26.25 8.88L26.25 8.88L26.25 8.88Q26.25 8.26 26.69 7.80L26.69 7.80L26.69 7.80Q27.13 7.34 27.89 7.08L27.89 7.08L27.89 7.08Q28.64 6.83 29.55 6.83L29.55 6.83L29.55 6.83Q30.77 6.83 31.54 7.20L31.54 7.20L31.54 7.20Q32.31 7.56 32.77 8.27L32.77 8.27L31.08 9.42L31.08 9.42Q30.81 9.00 30.45 8.80L30.45 8.80L30.45 8.80Q30.09 8.60 29.55 8.60L29.55 8.60L29.55 8.60Q29.12 8.60 28.85 8.71L28.85 8.71L28.85 8.71Q28.57 8.82 28.57 8.96L28.57 8.96L28.57 8.96Q28.57 9.13 28.78 9.23L28.78 9.23L28.78 9.23Q28.98 9.32 29.40 9.42L29.40 9.42L29.40 9.42Q29.48 9.45 29.56 9.46L29.56 9.46L29.56 9.46Q29.64 9.48 29.71 9.49L29.71 9.49L29.71 9.49Q30.55 9.70 31.19 9.95L31.19 9.95L31.19 9.95Q31.82 10.19 32.33 10.68L32.33 10.68L32.33 10.68Q32.83 11.16 32.83 11.91L32.83 11.91L32.83 11.91Q32.84 13.01 31.91 13.58L31.91 13.58L31.91 13.58Q30.98 14.15 29.43 14.15L29.43 14.15ZM37.59 8.41L41.51 8.41L41.51 12.35L41.51 12.35Q41.03 13.12 40.08 13.64L40.08 13.64L40.08 13.64Q39.12 14.15 37.91 14.15L37.91 14.15L37.91 14.15Q36.02 14.15 34.96 13.05L34.96 13.05L34.96 13.05Q33.89 11.94 33.89 9.13L33.89 9.13L33.89 9.13Q33.89 6.31 34.94 5.21L34.94 5.21L34.94 5.21Q35.98 4.12 37.87 4.12L37.87 4.12L37.87 4.12Q38.95 4.12 39.66 4.37L39.66 4.37L39.66 4.37Q40.36 4.62 40.80 5.07L40.80 5.07L40.80 5.07Q41.24 5.53 41.62 6.23L41.62 6.23L39.44 7.42L39.44 7.42Q39.37 7.31 39.26 7.08L39.26 7.08L39.26 7.08Q39.09 6.75 38.95 6.54L38.95 6.54L38.95 6.54Q38.81 6.34 38.54 6.21L38.54 6.21L38.54 6.21Q38.28 6.08 37.86 6.08L37.86 6.08L37.86 6.08Q37.44 6.08 37.14 6.29L37.14 6.29L37.14 6.29Q36.85 6.51 36.66 7.18L36.66 7.18L36.66 7.18Q36.47 7.85 36.47 9.13L36.47 9.13L36.47 9.13Q36.47 10.40 36.66 11.08L36.66 11.08L36.66 11.08Q36.85 11.76 37.16 11.98L37.16 11.98L37.16 11.98Q37.46 12.19 37.91 12.19L37.91 12.19L37.91 12.19Q38.30 12.19 38.59 12.09L38.59 12.09L38.59 12.09Q38.88 11.98 39.00 11.84L39.00 11.84L39.00 10.36L37.59 10.36L37.59 8.41ZM50.39 12.98L48.94 14.35L48.08 13.50L48.08 13.50Q47.22 14.15 46.06 14.15L46.06 14.15L46.06 14.15Q44.44 14.15 43.64 13.59L43.64 13.59L43.64 13.59Q42.84 13.02 42.84 11.86L42.84 11.86L42.84 11.86Q42.84 10.68 43.66 10.13L43.66 10.13L43.66 10.13Q44.48 9.58 46.34 9.58L46.34 9.58L47.00 9.58L47.00 9.58Q46.98 9.21 46.82 9.00L46.82 9.00L46.82 9.00Q46.65 8.78 46.20 8.78L46.20 8.78L46.20 8.78Q45.56 8.78 45.18 8.94L45.18 8.94L45.18 8.94Q44.80 9.10 44.51 9.42L44.51 9.42L43.02 8.01L43.02 8.01Q43.67 7.36 44.48 7.10L44.48 7.10L44.48 7.10Q45.30 6.83 46.37 6.83L46.37 6.83L46.37 6.83Q47.75 6.83 48.63 7.40L48.63 7.40L48.63 7.40Q49.50 7.97 49.50 9.03L49.50 9.03L49.50 12.10L50.39 12.98ZM45.25 11.82L45.25 11.82Q45.25 11.94 45.29 12.03L45.29 12.03L45.29 12.03Q45.33 12.11 45.56 12.18L45.56 12.18L45.56 12.18Q45.79 12.25 46.30 12.25L46.30 12.25L46.30 12.25Q46.72 12.25 47.00 12.10L47.00 12.10L47.00 11.14L46.82 11.14L46.82 11.14Q45.25 11.14 45.25 11.82L45.25 11.82ZM56.90 6.85L56.90 6.85Q57.75 6.85 58.28 7.40L58.28 7.40L58.28 7.40Q58.81 7.95 58.81 9.49L58.81 9.49L58.81 14L56.50 14L56.50 9.41L56.50 9.41Q56.50 9.07 56.44 8.94L56.44 8.94L56.44 8.94Q56.38 8.81 56.24 8.81L56.24 8.81L56.24 8.81Q56.11 8.81 55.92 8.90L55.92 8.90L55.92 8.90Q55.73 8.99 55.58 9.13L55.58 9.13L55.58 14L53.62 14L53.62 9.41L53.62 9.41Q53.62 9.09 53.51 8.95L53.51 8.95L53.51 8.95Q53.40 8.81 53.24 8.81L53.24 8.81L53.24 8.81Q53.13 8.81 52.98 8.89L52.98 8.89L52.98 8.89Q52.84 8.97 52.71 9.11L52.71 9.11L52.71 14L50.37 14L50.37 9.17L50.37 7L51.93 7L52.35 7.73L52.35 7.73Q52.63 7.31 53.00 7.08L53.00 7.08L53.00 7.08Q53.37 6.85 53.77 6.85L53.77 6.85L53.77 6.85Q54.29 6.85 54.71 7.10L54.71 7.10L54.71 7.10Q55.13 7.35 55.31 7.83L55.31 7.83L55.31 7.83Q55.62 7.38 56.06 7.11L56.06 7.11L56.06 7.11Q56.49 6.85 56.90 6.85L56.90 6.85ZM63.28 5.98L63.28 5.98Q62.55 5.98 62.04 5.47L62.04 5.47L62.04 5.47Q61.53 4.96 61.53 4.23L61.53 4.23L61.53 4.23Q61.53 3.49 62.04 2.98L62.04 2.98L62.04 2.98Q62.55 2.48 63.28 2.48L63.28 2.48L63.28 2.48Q64.02 2.48 64.53 2.98L64.53 2.98L64.53 2.98Q65.03 3.49 65.03 4.23L65.03 4.23L65.03 4.23Q65.03 4.96 64.53 5.47L64.53 5.47L64.53 5.47Q64.02 5.98 63.28 5.98L63.28 5.98ZM64.53 12.05L66.28 12.05L66.28 14L62.02 14L62.02 8.95L59.78 8.95L59.78 7L64.53 7L64.53 12.05ZM71.99 6.85L71.99 6.85Q72.77 6.85 73.44 7.18L73.44 7.18L73.44 7.18Q74.10 7.52 74.51 8.24L74.51 8.24L74.51 8.24Q74.91 8.96 74.91 10.05L74.91 10.05L74.91 14L72.41 14L72.41 9.87L72.41 9.87Q72.41 9.34 72.25 9.07L72.25 9.07L72.25 9.07Q72.10 8.81 71.71 8.81L71.71 8.81L71.71 8.81Q71.06 8.81 70.73 9.34L70.73 9.34L70.73 14L68.22 14L68.22 9.17L68.22 7L69.85 7L70.22 7.59L70.22 7.59Q70.90 6.85 71.99 6.85L71.99 6.85ZM81.06 12.46L81.06 12.46Q83.52 12.46 83.52 14.24L83.52 14.24L83.52 14.24Q83.52 15.44 82.66 16.16L82.66 16.16L82.66 16.16Q81.80 16.88 79.90 16.88L79.90 16.88L79.90 16.88Q78.29 16.88 77.27 16.44L77.27 16.44L77.27 16.44Q76.24 16.00 76.24 14.97L76.24 14.97L76.24 14.97Q76.24 14.43 76.52 14.12L76.52 14.12L76.52 14.12Q76.80 13.80 77.24 13.55L77.24 13.55L77.24 13.55Q76.66 13.23 76.66 12.68L76.66 12.68L76.66 12.68Q76.66 12.22 76.90 11.96L76.90 11.96L76.90 11.96Q77.14 11.69 77.53 11.47L77.53 11.47L77.53 11.47Q76.40 10.85 76.40 9.37L76.40 9.37L76.40 9.37Q76.40 7.98 77.32 7.41L77.32 7.41L77.32 7.41Q78.23 6.83 79.81 6.83L79.81 6.83L79.81 6.83Q81.12 6.83 81.86 7.17L81.86 7.17L82.60 6.44L83.93 7.70L83.10 8.53L83.10 8.53Q83.22 8.90 83.22 9.37L83.22 9.37L83.22 9.37Q83.22 10.75 82.28 11.33L82.28 11.33L82.28 11.33Q81.34 11.91 79.81 11.91L79.81 11.91L79.81 11.91Q79.56 11.91 79.09 11.89L79.09 11.89L79.09 11.89Q79.07 11.93 79.07 12.00L79.07 12.00L79.07 12.00Q79.07 12.21 79.26 12.33L79.26 12.33L79.26 12.33Q79.45 12.46 79.81 12.46L79.81 12.46L81.05 12.46L81.06 12.46ZM79.81 8.69L79.81 8.69Q79.38 8.69 79.18 8.82L79.18 8.82L79.18 8.82Q78.97 8.95 78.97 9.37L78.97 9.37L78.97 9.37Q78.97 9.80 79.16 9.93L79.16 9.93L79.16 9.93Q79.35 10.05 79.81 10.05L79.81 10.05L79.81 10.05Q80.28 10.05 80.46 9.93L80.46 9.93L80.46 9.93Q80.64 9.80 80.64 9.37L80.64 9.37L80.64 9.37Q80.64 8.97 80.43 8.83L80.43 8.83L80.43 8.83Q80.22 8.69 79.81 8.69L79.81 8.69ZM81.26 14.70L81.26 14.70Q81.28 14.56 81.28 14.52L81.28 14.52L81.28 14.52Q81.28 14.01 80.43 14.01L80.43 14.01L79.56 14.01L79.56 14.01Q79.16 14.01 78.69 13.96L78.69 13.96L78.69 13.96Q78.47 14.25 78.47 14.48L78.47 14.48L78.47 14.48Q78.47 14.57 78.51 14.70L78.51 14.70L78.51 14.70Q78.62 14.98 78.96 15.11L78.96 15.11L78.96 15.11Q79.30 15.23 79.90 15.23L79.90 15.23L79.90 15.23Q80.30 15.23 80.74 15.11L80.74 15.11L80.74 15.11Q81.17 14.99 81.26 14.70L81.26 14.70Z"></path></g><!----><g data-v-423bf9ae="" id="56a60cfd-eec3-4f0f-999b-94bcdf901811" transform="matrix(1.6666666666666667,0,0,1.6666666666666667,0,0)" stroke="none" fill="#F9B200"><g><path d="M46.5 40c-.827 0-1.5.673-1.5 1.5s.673 1.5 1.5 1.5 1.5-.673 1.5-1.5-.673-1.5-1.5-1.5M46 33.5c0-.827-.673-1.5-1.5-1.5s-1.5.673-1.5 1.5.673 1.5 1.5 1.5 1.5-.673 1.5-1.5M38.5 37c-.827 0-1.5.673-1.5 1.5s.673 1.5 1.5 1.5 1.5-.673 1.5-1.5-.673-1.5-1.5-1.5M52.5 35c-.827 0-1.5.673-1.5 1.5s.673 1.5 1.5 1.5 1.5-.673 1.5-1.5-.673-1.5-1.5-1.5M15 36v-2h-3v2a1 1 0 0 1-1 1H9v3h2a1 1 0 0 1 1 1v2h3v-2a1 1 0 0 1 1-1h2v-3h-2a1 1 0 0 1-1-1"></path><path d="M45.021 23.001L30 23.002V5.5C30 3.57 31.57 2 33.5 2S37 3.57 37 5.5V8c0 2.757 2.243 5 5 5s5-2.243 5-5V0h-2v8c0 1.654-1.346 3-3 3s-3-1.346-3-3V5.5C39 2.468 36.532 0 33.5 0A5.507 5.507 0 0 0 28 5.5v17.502H15.302C7.008 23.374 0 30.697 0 38.993 0 46.16 5.274 53.901 13.127 54h.044c1.209 0 2.828-.615 4.878-1.394 1.461-.556 3.117-1.185 4.794-1.64 4.332-1.174 10.001-1.174 14.313 0 1.754.477 3.575 1.14 5.18 1.724 2.299.836 3.641 1.31 4.54 1.31h.001C54.727 53.868 60 46.134 60 38.993c0-8.448-6.699-15.621-14.979-15.992zM20 41a1 1 0 0 1-1 1h-2v2a1 1 0 0 1-1 1h-5a1 1 0 0 1-1-1v-2H8a1 1 0 0 1-1-1v-5a1 1 0 0 1 1-1h2v-2a1 1 0 0 1 1-1h5a1 1 0 0 1 1 1v2h2a1 1 0 0 1 1 1v5zm3-11.999a1 1 0 0 1 1-1h12a1 1 0 1 1 0 2H24a1 1 0 0 1-1-1zm4.707 16.706a.997.997 0 0 1-1.414 0 .999.999 0 0 1 0-1.414l2-2a.999.999 0 1 1 1.414 1.414l-2 2zm6-2l-2 2a.997.997 0 0 1-1.414 0 .999.999 0 0 1 0-1.414l2-2a.999.999 0 1 1 1.414 1.414zM38.5 42c-1.93 0-3.5-1.57-3.5-3.5s1.57-3.5 3.5-3.5 3.5 1.57 3.5 3.5-1.57 3.5-3.5 3.5zm2.5-8.5c0-1.93 1.57-3.5 3.5-3.5s3.5 1.57 3.5 3.5-1.57 3.5-3.5 3.5-3.5-1.57-3.5-3.5zM46.5 45c-1.93 0-3.5-1.57-3.5-3.5s1.57-3.5 3.5-3.5 3.5 1.57 3.5 3.5-1.57 3.5-3.5 3.5zm6-5c-1.93 0-3.5-1.57-3.5-3.5s1.57-3.5 3.5-3.5 3.5 1.57 3.5 3.5-1.57 3.5-3.5 3.5z"></path></g></g><!----><g data-v-423bf9ae="" id="f21a82ee-5afc-4952-b912-61550420e304" fill="#FFFFFF" transform="matrix(0.9598071651334489,0,0,0.9598071651334489,118.91541694061442,57.98440568231273)"><path d="M1.13 2.21L1.13 11.48L7.24 11.48L7.24 10.47L2.18 10.47L2.18 2.21ZM22.41 3.22L22.41 2.21L15.60 2.21L15.60 11.48L22.41 11.48L22.41 10.47L16.65 10.47L16.65 7.35L21.80 7.35L21.80 6.33L16.65 6.33L16.65 3.22ZM31.61 4.65C31.61 4.03 31.98 3.08 34.08 3.08C35.77 3.08 36.55 3.82 36.67 4.75L37.74 4.75C37.66 3.36 36.54 2.10 34.08 2.10C31.75 2.10 30.59 3.15 30.59 4.66C30.59 7.84 36.93 6.69 36.93 8.96C36.93 10.05 35.95 10.60 34.38 10.60C32.77 10.60 31.47 10.05 31.40 8.71L30.31 8.71C30.45 10.37 31.57 11.59 34.31 11.59C36.60 11.59 37.98 10.64 37.98 8.92C37.98 5.68 31.61 6.80 31.61 4.65ZM47.22 4.65C47.22 4.03 47.59 3.08 49.69 3.08C51.38 3.08 52.16 3.82 52.28 4.75L53.35 4.75C53.27 3.36 52.15 2.10 49.69 2.10C47.36 2.10 46.20 3.15 46.20 4.66C46.20 7.84 52.54 6.69 52.54 8.96C52.54 10.05 51.56 10.60 49.99 10.60C48.38 10.60 47.08 10.05 47.01 8.71L45.92 8.71C46.06 10.37 47.18 11.59 49.92 11.59C52.21 11.59 53.59 10.64 53.59 8.92C53.59 5.68 47.22 6.80 47.22 4.65ZM78.78 2.21L71.26 2.21L71.26 3.22L74.49 3.22L74.49 11.48L75.54 11.48L75.54 3.22L78.78 3.22ZM90.44 2.21L89.12 2.21L85.19 11.48L86.35 11.48L87.49 8.79L92.08 8.79L93.21 11.48L94.37 11.48ZM87.89 7.83L89.78 3.30L91.67 7.83ZM102.55 2.21L102.55 11.48L108.65 11.48L108.65 10.47L103.60 10.47L103.60 2.21ZM124.70 2.21L123.21 2.21L118.06 7.04L118.06 2.21L117.01 2.21L117.01 11.48L118.06 11.48L118.06 8.44L119.98 6.65L123.61 11.48L124.92 11.48L120.75 5.94ZM132.59 10.05L132.59 11.48L133.95 11.48L133.95 10.05ZM160.61 2.21L157.35 6.61L154.03 2.21L152.81 2.21L152.81 11.48L153.86 11.48L153.86 3.81L157.35 8.22L160.78 3.81L160.78 11.48L161.83 11.48L161.83 2.21ZM175.21 2.10C172.40 2.10 170.51 4.21 170.51 6.85C170.51 9.48 172.40 11.59 175.21 11.59C178.02 11.59 179.91 9.48 179.91 6.85C179.91 4.21 178.02 2.10 175.21 2.10ZM175.21 10.57C172.96 10.57 171.56 8.93 171.56 6.85C171.56 4.76 172.96 3.12 175.21 3.12C177.46 3.12 178.86 4.76 178.86 6.85C178.86 8.93 177.46 10.57 175.21 10.57ZM189.64 7.92L192.86 7.92L195.10 11.48L196.35 11.48L193.91 7.74C194.95 7.50 196.15 6.90 196.15 5.11C196.15 3.35 194.94 2.21 193.03 2.21L188.59 2.21L188.59 11.48L189.64 11.48ZM189.64 3.21L192.91 3.21C194.22 3.21 195.10 3.93 195.10 5.11C195.10 6.55 193.84 6.93 192.85 6.93L189.64 6.93ZM211.78 3.22L211.78 2.21L204.96 2.21L204.96 11.48L211.78 11.48L211.78 10.47L206.01 10.47L206.01 7.35L211.16 7.35L211.16 6.33L206.01 6.33L206.01 3.22ZM231.50 8.18L234.63 8.18C236.60 8.18 237.82 7.03 237.82 5.19C237.82 3.37 236.60 2.21 234.63 2.21L230.45 2.21L230.45 11.48L231.50 11.48ZM234.56 3.21C236.01 3.21 236.77 3.96 236.77 5.19C236.77 6.44 236.01 7.20 234.56 7.20L231.50 7.20L231.50 3.21ZM246.25 2.21L246.25 11.48L252.35 11.48L252.35 10.47L247.30 10.47L247.30 2.21ZM264.87 2.21L263.55 2.21L259.62 11.48L260.78 11.48L261.91 8.79L266.50 8.79L267.64 11.48L268.80 11.48ZM262.32 7.83L264.21 3.30L266.10 7.83ZM279.79 7.81L283.67 2.21L282.39 2.21L279.26 6.72L276.12 2.21L274.85 2.21L278.74 7.81L278.74 11.48L279.79 11.48ZM291.54 10.05L291.54 11.48L292.89 11.48L292.89 10.05ZM292.60 8.92L292.87 2.21L291.56 2.21L291.83 8.92Z"></path></g></svg>